<?xml version="1.0" encoding="utf-8"?>
<!-- Generator: Adobe Illustrator 24.2.0, SVG Export Plug-In . SVG Version: 6.00 Build 0)  -->
<svg version="1.1" id="Layer_1" xmlns="http://www.w3.org/2000/svg" xmlns:xlink="http://www.w3.org/1999/xlink" x="0px" y="0px"
	 viewBox="0 0 1127 1127" style="enable-background:new 0 0 1127 1127;" xml:space="preserve">
<style type="text/css">
	.st0{fill:#053484;}
	.st1{fill:#FEFEFE;}
</style>
<g>
	<g>
		<path class="st0" d="M434.65,15.91C485.59,3.84,538.22-0.94,590.51,1.47c73.34,3.31,145.98,21.24,212.41,52.51
			c58.8,27.61,112.72,65.5,158.7,111.37c44.39,44.2,81.4,95.82,108.92,152.1c36.32,73.96,55.71,156.02,56.96,238.38v17.29
			c-1.32,78.32-18.93,156.37-52.02,227.4c-27.14,58.52-64.46,112.29-109.69,158.29c-46.29,47.14-100.88,86.11-160.56,114.47
			c-72.57,34.62-152.68,53.03-233.05,54.22H556.8c-64.7-0.96-129.26-12.86-189.83-35.67c-102.85-38.4-193.71-107.81-258.23-196.59
			c-41.89-57.4-72.8-122.79-90.36-191.66c-23.76-92.89-23.28-191.87,1.47-284.5c17.43-65.48,46.96-127.69,86.5-182.7
			c38.68-53.9,86.89-100.93,141.76-138.23C304.58,59.67,368.13,31.59,434.65,15.91z M536.15,12.38
			c-91.95,4.49-182.6,32.64-260.91,81.04c-56.97,35.07-107.49,80.56-148.38,133.5C82.04,284.86,48.85,351.8,30.12,422.63
			c-24.8,93.38-24.48,193.29,0.92,286.5c19.23,70.84,52.93,137.68,98.26,195.4c65.3,83.49,154.99,147.73,255.29,182.12
			c81.44,28.15,169.53,36.55,254.87,24.86c75.47-10.24,148.67-36.54,213.5-76.5c60.25-37.06,113.3-85.78,155.39-142.65
			c44.39-59.85,76.52-128.78,93.57-201.33c21-89.03,19.48-183.3-4.52-271.58c-25.27-93.52-75.98-179.89-144.9-247.93
			C901.58,121.1,840.82,80.64,774.57,53.28C699.45,22.14,617.34,8.23,536.15,12.38z"/>
	</g>
	<path class="st0" d="M542.16,106.09c0.11-21.26-0.27-42.53-0.12-63.79c4.23,0.04,8.47-0.05,12.7-0.08
		c0.03,8.39,0.04,16.78,0.07,25.17c8.33-0.03,16.66-0.06,25-0.09c-0.04-8.39-0.1-16.78-0.16-25.17c4.28-0.04,8.57-0.06,12.85-0.08
		c0.11,21.33,0.21,42.65,0.32,63.98c-4.29,0.04-8.58,0.04-12.86,0.06c-0.07-9.31-0.09-18.62-0.15-27.93
		c-8.26,0.07-16.52,0.14-24.77,0.22c-0.02,9.26-0.01,18.51-0.01,27.77C550.74,106.14,546.45,106.26,542.16,106.09z"/>
	<g>
		<path class="st0" d="M624.97,46.17c7.72-2.06,16.09-1.1,23.47,1.79c8.71,3.5,14.96,11.9,16.46,21.08
			c1.14,7.13,0.44,14.52-1.59,21.43c-2.35,7.87-7.76,15.05-15.39,18.4c-8.38,3.73-18.15,2.85-26.58-0.25
			c-7.97-2.96-14.09-9.99-16.28-18.15c-2.18-8.25-1.32-17.07,1.19-25.14C609.05,56.52,615.93,48.76,624.97,46.17z M628.97,57.13
			c-6.31,2.39-9.85,8.95-11.1,15.25c-1.3,6.78-1.49,14.4,2.28,20.47c5.12,8.53,18.68,10.05,25.51,2.77
			c4.79-5.07,6.34-12.29,6.7-19.06c0.3-6.28-1.44-13.32-6.77-17.19C640.83,56.09,634.43,55.25,628.97,57.13z"/>
	</g>
	<path class="st0" d="M480.93,48.93c4.25-0.64,8.5-1.27,12.75-1.89c2.98,21.12,5.96,42.25,8.92,63.37
		c-4.26,0.63-8.52,1.27-12.79,1.8C486.91,91.11,483.88,70.03,480.93,48.93z"/>
	<g>
		<path class="st0" d="M428.43,59.86c4.37-1.04,8.71-2.16,13.07-3.27c13.23,18.7,26.41,37.43,39.58,56.17
			c-4.49,1.1-8.97,2.24-13.46,3.34c-2.95-4.29-5.91-8.58-8.88-12.85c-8.12,2.02-16.23,4.04-24.34,6.06
			c-0.63,5.12-1.19,10.25-1.82,15.38c-4.37,1.08-8.74,2.19-13.12,3.24C422.45,105.24,425.33,82.53,428.43,59.86z M438.22,73.38
			c-0.75,8.19-1.72,16.35-2.53,24.54c5.55-1.37,11.09-2.73,16.64-4.11c-3.99-6.06-8.06-12.07-12.02-18.15
			C439.77,74.76,439.07,73.99,438.22,73.38z"/>
	</g>
	<path class="st0" d="M687.1,68.07c11.41-12.37,33.65-9.81,43.2,3.53c3.23,4.26,4.12,9.71,4.19,14.93
		c-4.26-0.15-8.51-0.47-12.77-0.53c-0.17-4.56-1.65-9.49-5.67-12.11c-4.88-3.05-11.74-4.08-16.68-0.62
		c-4.57,3.24-6.86,8.65-8.5,13.82c-1.67,5.65-2.99,11.76-1.44,17.59c2.17,8.82,14.52,13.19,21.57,7.32
		c2.37-1.84,3.99-4.41,5.58-6.91c3.61,2.38,7.19,4.83,10.77,7.25c-3.78,6.18-9.41,11.77-16.72,13.3
		c-8.46,1.67-17.54-0.77-24.41-5.87c-8.45-6.43-11.66-17.96-9.98-28.17C677.72,83.03,680.9,74.38,687.1,68.07z"/>
	<g>
		<path class="st0" d="M366.66,80.58c5.63-2.23,12.07-3.23,17.85-0.99c7.62,2.86,13.08,9.62,16.4,16.83
			c3.79,8.08,6.82,17.19,4.76,26.17c-1.64,8.12-8.36,14.23-15.76,17.33c-8.1,3.45-16.29,6.72-24.43,10.09
			c-3.44-8.6-6.95-17.17-10.34-25.79c-2.07,0.79-4.13,1.61-6.2,2.39c-0.99-2.5-1.99-5-3-7.49c2.04-0.87,4.08-1.73,6.12-2.6
			c-3.49-8.56-6.96-17.13-10.49-25.67C349.92,87.38,358.26,83.92,366.66,80.58z M357.45,95.88c2.08,5.33,4.25,10.62,6.35,15.94
			c4.2-1.71,8.37-3.47,12.55-5.21c1.02,2.49,2.02,4.99,3,7.49c-4.18,1.71-8.36,3.44-12.54,5.16c2.13,5.33,4.26,10.65,6.41,15.97
			c6.3-2.83,13.57-4.5,18.42-9.72c4-5.48,1.44-12.68-0.5-18.47c-2.54-6.41-5.72-13.93-12.69-16.49
			C371.02,88.9,364.21,93.54,357.45,95.88z"/>
	</g>
	<path class="st0" d="M776.18,96.35c1.68-3.22,3.37-6.44,5.07-9.66c14.77,7.91,29.54,15.81,44.31,23.74
		c-1.61,3.19-3.23,6.37-4.85,9.55c-5.48-2.94-11.02-5.76-16.45-8.79c-8.42,15.54-16.34,31.36-24.58,47
		c-3.79-2.02-7.56-4.04-11.34-6.04c7.99-15.76,16.55-31.26,24.25-47.16C787.05,102.23,781.65,99.23,776.18,96.35z"/>
	<path class="st0" d="M624.8,114.94c4.25,0.72,8.45,1.72,12.67,2.62c-0.87,4.21-1.74,8.42-2.6,12.63
		c-4.21-0.87-8.41-1.74-12.61-2.63C623.1,123.35,624.06,119.17,624.8,114.94z"/>
	<g>
		<path class="st0" d="M803.81,171.91c12.43-17.29,24.77-34.63,37.23-51.89c8.35,6.3,16.79,12.48,25.15,18.77
			c4.5,3.45,9.01,7.88,9.8,13.78c0.83,7.84-3.93,15.84-10.97,19.24c-5.35,2.45-11.41,0.72-16.35-1.86
			c4.16,9.4,1.99,19.83,1.59,29.71c18.84-9.04,37.73-17.97,56.58-26.99c3.27,3.07,6.44,6.25,9.76,9.26
			c-8.17,21.5-16.79,42.84-25.16,64.27c-3.38-3.21-6.75-6.43-10.11-9.66c1.96-4.82,3.91-9.63,5.89-14.44
			c-6.05-5.87-12.25-11.58-18.23-17.52c-4.64,2.12-9.13,4.56-13.69,6.82c-5.45-5.52-11.49-10.37-17.8-14.86
			c0.34-7.67,0.67-15.34,0.91-23.02c0.01-3.16,0.03-6.56-1.62-9.37c-1.81-2.65-4.56-4.43-7.1-6.3
			c-5.18,7.21-10.31,14.46-15.52,21.64C810.73,176.95,807.25,174.45,803.81,171.91z M844.97,136.46c-3.05,4.43-6.25,8.76-9.35,13.15
			c4.42,3.17,8.77,6.45,13.18,9.65c2.66,1.79,6.23,3.41,9.38,1.83c2.44-1.4,4.16-3.96,4.83-6.67c0.56-3.13-1.67-5.82-3.98-7.6
			C854.45,143.22,849.76,139.77,844.97,136.46z M879.14,199.44c4.14,4,8.29,7.98,12.45,11.96c3.25-7.72,6.51-15.44,9.74-23.17
			C893.92,191.94,886.53,195.69,879.14,199.44z"/>
	</g>
	<path class="st0" d="M276.76,127.73c5.31-3.15,11.66-5.19,17.86-3.94c4.34,0.79,8.07,3.34,11.37,6.15
		c-2.98,3.13-6.09,6.16-9.12,9.24c-3.45-2.67-8.06-4.28-12.34-2.7c-5.52,2.04-10.69,6.25-12.51,12.01
		c-2.04,6.64,0.78,13.56,4.59,18.97c4.14,6.28,10.87,12.07,18.86,11.41c8.63-1.11,15.35-8.44,17.79-16.51
		c-1.52-2.22-3-4.46-4.48-6.71c-4.08,2.71-8.04,5.6-12.08,8.37c-2.02-2.92-4.03-5.85-6.04-8.78c7.52-5.29,15.02-10.61,22.56-15.87
		c4.8,7.03,9.59,14.07,14.4,21.1c-2.26,9.33-8.49,17.31-16.02,23.07c-7.1,5.29-16.27,8.49-25.14,6.57
		c-10.82-2.36-19.29-11.01-23.98-20.73c-4.1-8.2-4.69-18.25-0.65-26.59C264.76,136.12,270.62,131.34,276.76,127.73z"/>
	<path class="st0" d="M446.55,127.23c4.2-0.74,8.42-1.42,12.64-2.11c0.66,4.22,1.35,8.45,2,12.68c-4.17,0.72-8.34,1.44-12.51,2.14
		C447.98,135.7,447.28,131.46,446.55,127.23z"/>
	<path class="st0" d="M510.41,136.43c83.55-10.53,170.13,3.87,245.49,41.56c73.01,36.23,135.27,93.67,177.35,163.46
		c-21.89,4.44-43.62,9.68-65.03,16.04c-37.38-54.88-89.59-99.63-149.86-127.58c-72.94-34.16-157.37-42.57-235.74-24.23
		c-49.64,11.52-96.72,33.75-137.31,64.54c-44.53,33.69-81.25,77.61-106.62,127.35c-21.77,42.49-35.16,89.22-39.41,136.77
		c-21.64,0-43.28,0-64.92,0c3.81-56.18,18.78-111.6,43.91-162c33.75-68.09,85.93-126.89,149.46-168.59
		C382.38,167.69,445.42,144.46,510.41,136.43z"/>
	<path class="st0" d="M916.12,157.13c0.28-0.04,0.84-0.11,1.12-0.14c3.26,3.08,6.1,6.59,9.21,9.83c-1.84,4.43-3.68,8.87-5.55,13.29
		c-1.73-1.88-3.45-3.76-5.17-5.64c0.43-5.49,0.95-10.97,1.35-16.46L916.12,157.13z"/>
	<path class="st0" d="M223.56,170.58c2.88-2.76,5.76-5.52,8.66-8.26c14.4,15.59,28.86,31.13,43.23,46.74
		c-3.17,2.92-6.19,5.99-9.44,8.83c-15.5-4.4-31.08-8.53-46.62-12.81c9.32,10.2,18.72,20.31,28.07,30.48
		c-2.9,2.7-5.67,5.54-8.68,8.11c-14.35-15.56-28.76-31.07-43.21-46.54c3.01-2.94,6.1-5.79,9.15-8.67
		c15.86,4.37,31.69,8.83,47.56,13.16C242.74,191.24,233.12,180.93,223.56,170.58z"/>
	<g>
		<path class="st0" d="M164.93,215c1.74-2.29,3.53-4.55,5.34-6.79c4.57,3.73,10.71,7.61,10.54,14.31
			c7.57-1.13,15.33,0.92,21.69,5.07c8.83,5.62,16.65,14.26,18.11,24.98c1.54,9.53-2.99,18.93-9.41,25.74
			c-5.03,5.54-12.03,9.64-19.66,9.81c-10.45,0.6-19.98-5.4-27.01-12.62c-7.16-7.22-11.64-17.95-8.87-28.09
			c2.92-10.48,10.78-19.74,20.98-23.72c0.22-2.56-0.72-4.93-2.5-6.74c-0.89,1.1-1.77,2.21-2.64,3.32
			C169.31,218.5,167.13,216.74,164.93,215z M179.93,235.07c-8.95,2.64-15.76,13.34-12,22.43c2.37,5.98,7.31,10.55,12.58,14.02
			c4.95,3.22,11.3,5.07,17.04,2.97c7.57-2.96,12.91-11.76,10.73-19.83c-1.63-6.18-6.34-10.94-11.28-14.7
			C192.18,236.37,186.02,233.65,179.93,235.07z"/>
	</g>
	<path class="st0" d="M519.34,222.84c45.55-6.15,92.34-3.15,136.66,9.09c75.86,20.71,143.55,68.84,189.01,132.88
		c-6.79,2.28-13.51,4.74-20.25,7.16c-39.15-51.82-94.11-91.6-155.79-112.07c-76.34-25.66-162.33-21.08-235.43,12.78
		c-51.79,23.72-96.95,61.48-129.85,107.94c-32.15,45.18-52.57,98.59-58.81,153.68c-7.44,0.09-14.89,0.02-22.33,0.05
		c4.71-49.44,20.01-97.84,44.78-140.89c28.54-49.87,69.61-92.5,118.5-122.71C426.31,245.63,472.12,229.17,519.34,222.84z"/>
	<path class="st0" d="M142.29,231.66c2.98-3.42,6.11-6.7,9.16-10.05c4.48,1.45,8.96,2.93,13.44,4.38c-1.72,1.92-3.47,3.81-5.22,5.7
		C153.88,231.67,148.08,231.72,142.29,231.66z"/>
	<path class="st0" d="M923.23,287.08c12.74-18.48,25.3-37.12,38.25-55.45c3.13,3.17,5.36,7.43,8.18,11
		c-9.61,13.56-19.26,27.1-28.89,40.65c15.75-4.84,31.46-9.84,47.22-14.65c2.53,3.71,5.3,7.26,7.71,11.06
		c-21.5,6.21-43.02,12.36-64.52,18.6C928.49,294.58,925.89,290.8,923.23,287.08z"/>
	<path class="st0" d="M124.66,268.15c1.49-2.43,3.01-4.84,4.55-7.24c3.77,2.49,8.22,4.46,10.68,8.44c1.46,2.27,1.3,5.05,1.02,7.62
		c9.91,6.54,20.23,12.47,30.04,19.18c4.82,3.41,9.6,8.04,10.41,14.19c1.1,7.95-2.87,15.43-7.3,21.73
		c-3.9,5.45-9.56,10.56-16.62,10.78c-5.59,0.51-10.56-2.5-15.28-5.06c-11.53-6.82-22.67-14.27-34.02-21.37
		c2.25-3.63,4.48-7.26,6.75-10.87c11.82,7.37,23.53,14.93,35.44,22.14c3.71,2.49,9.01,3.23,12.59,0.11
		c3.52-3.12,6.32-7.52,6.67-12.29c0.2-4.7-4.04-7.54-7.51-9.8c-11.29-7.25-22.63-14.43-34.01-21.53c2.12-3.75,4.47-7.35,6.67-11.04
		c0.67,0.35,2,1.05,2.67,1.4c-0.56-2.06-1.3-4.28-3.38-5.25c-0.89,0.93-1.17,2.71-2.49,3.13
		C129.16,271.15,126.96,269.55,124.66,268.15z"/>
	<path class="st0" d="M442.6,293.58c38.12-17.57,80.01-26.88,121.98-27.21c40.02-0.46,80.11,7.32,117.07,22.68
		c47.31,19.58,89.28,51.63,121.1,91.71c-8.72,3.71-17.35,7.61-25.88,11.72c-19.88-24.65-44.01-45.88-71.06-62.34
		c-31.47-19.21-66.89-31.91-103.4-37c-47.37-6.67-96.48-0.77-140.8,17.26c-56.56,22.82-104.85,65.25-134.95,118.27
		c-18.5,32.39-30.21,68.6-34.25,105.68c-8.3-0.01-16.59,0-24.89-0.01c8.26-68.67,40.58-134.13,90.2-182.33
		C382.4,327.88,411.22,307.98,442.6,293.58z"/>
	<path class="st0" d="M947.24,323.35c18.07-11,36.29-21.74,54.42-32.64c2.17,3.69,4.32,7.4,6.49,11.1
		c-18.11,10.9-36.3,21.67-54.4,32.59C951.5,330.76,949.44,327.02,947.24,323.35z"/>
	<path class="st0" d="M524.47,314.61c42.09-6.66,85.87-2.6,125.89,12.09c41.6,15.18,78.95,41.63,107.31,75.6
		c-29.29,15.75-57.08,34.39-82.39,55.98c-29.37,24.99-55.34,53.93-77.24,85.66c-20.87,30.02-37.84,62.57-52.43,96.05
		c-20.71-26.84-43.17-52.55-69.15-74.45c-15.17-12.71-31.57-24.14-49.56-32.49c-16.34-7.54-34.24-12.53-52.35-11.77
		c-13.34,0.59-26.96,4.36-37.48,12.85c-7.68,0.51-15.45,0.05-23.16,0.22c4.34-37,17.01-73,36.83-104.55
		c18.92-30.22,44.32-56.37,73.99-76.15C454.64,333.64,488.92,320.22,524.47,314.61z"/>
	<path class="st0" d="M960.41,345.06c19.12-8.93,38.14-18.11,57.23-27.11c1.74,3.8,3.48,7.62,5.23,11.43
		c-9.05,13.95-18.16,27.87-27.23,41.82c12.74-6.06,25.48-12.11,38.22-18.18c1.69,3.57,3.34,7.16,5.02,10.75
		c-19.08,9.12-38.17,18.21-57.25,27.3c-1.82-3.91-3.64-7.82-5.44-11.74c8.8-13.67,17.67-27.31,26.46-40.99
		c-12.41,5.89-24.78,11.87-37.18,17.78C963.79,352.43,961.82,348.87,960.41,345.06z"/>
	<g>
		<path class="st0" d="M91.13,350.09c2.98-5.75,8.55-10.85,15.4-10.63c6.75,0.26,13.75,4.04,16.76,10.25
			c2.14,4.65,1.37,9.97,0,14.72c3.68-2.47,7.82-4.3,12.23-4.94c7.42-1.13,14.9-1.85,22.36-2.69c-2.06,4.29-4,8.64-6.1,12.91
			c-0.34,1.44-2.03,1.11-3.09,1.42c-6.7,0.88-13.4,1.86-20.09,2.86c-3.18,0.58-6.69,1.14-9.12,3.47c-2.02,2.28-3.11,5.18-4.49,7.86
			c7.92,3.84,15.81,7.74,23.76,11.53c-1.76,3.97-3.69,7.85-5.52,11.78c-19.03-9.26-38.06-18.49-57.05-27.83
			C81.23,370.6,85.82,360.16,91.13,350.09z M98.69,358.72c-2.5,5.02-4.86,10.12-7.14,15.24c4.76,2.24,9.47,4.6,14.21,6.87
			c2.34-4.72,4.73-9.43,6.93-14.23c1.21-2.64,2.11-5.73,1.18-8.6c-1.3-3.25-4.96-5.09-8.32-5.18
			C102.18,352.96,100.08,356,98.69,358.72z"/>
	</g>
	<g>
		<path class="st0" d="M820.45,400.32c40.33-17.29,83.13-29.49,126.93-33.41c27.09,52.46,43.22,110.56,46.93,169.5
			c5.34,80.82-12.59,163.1-51.7,234.08c-19.05,34.92-43.06,67.09-70.88,95.51c-204.97,0.07-409.93-0.07-614.9,0.07
			c-51.3-51.91-89.01-117.15-108.29-187.55c-10.23-37.2-15.35-75.78-15.33-114.36c49.55-0.01,99.1-0.01,148.65,0
			c0.02,50.64,0,101.29,0.01,151.93c12.89,0.02,25.79-0.03,38.68,0.03c0.17-50.64,0.03-101.28,0.07-151.92
			c8.36,1.27,17.19,2.18,25.4-0.26c6.08-4.59,12.86-8.42,20.32-10.2c14.17-3.62,29.13-0.77,42.48,4.56
			c17.84,7.17,33.79,18.27,48.62,30.36c28.2,23.36,52.7,50.82,75.41,79.44c12.28,15.38,23.59,31.51,34.9,47.6
			c0.49-37.65,11.13-74.61,27.66-108.25c15.8-32.22,36.75-61.74,60.67-88.41C701.7,468.52,757.81,427.19,820.45,400.32z
			 M691.11,539.14c0.02,40.81-0.06,81.62,0.04,122.42c0.22,17.19,5.78,35.41,19.31,46.79c11.81,10.07,28.06,12.19,43.05,12.06
			c14.84-0.12,30.89-2.47,42.5-12.52c13.36-11.92,21.76-29.42,21.88-47.41c0.07-40.45,0.02-80.89,0.03-121.34
			c-11.84,0-23.67-0.01-35.5,0c-0.01,38.79-0.01,77.58,0,116.37c0.19,6.11-0.17,12.45-2.87,18.05c-3.03,6.86-9.68,11.71-17,13.01
			c-8.84,1.63-18.82,0.77-26.1-4.92c-6.58-5.24-9.77-13.85-9.81-22.09c0-40.14,0-80.28-0.01-120.42
			C714.79,539.13,702.95,539.13,691.11,539.14z"/>
	</g>
	<path class="st0" d="M986.95,404.07c20.26-5.75,40.53-11.49,60.81-17.22c1.13,4.16,2.43,8.28,3.38,12.49
		c-7.96,2.01-15.81,4.44-23.74,6.55c1.92,8.2,4.39,16.27,6.54,24.41c7.97-2.26,15.94-4.51,23.92-6.74
		c1.15,4.12,2.31,8.24,3.48,12.37c-20.34,5.74-40.61,11.75-61.01,17.28c-1.01-4.18-2.23-8.31-3.29-12.47
		c8.86-2.45,17.69-5.01,26.55-7.5c-2.2-8.09-4.41-16.18-6.63-24.26c-8.89,2.48-17.76,5.01-26.65,7.43
		C989.2,412.29,988.07,408.18,986.95,404.07z"/>
	<path class="st0" d="M70.42,394.71c3.35,1.26,6.7,2.53,10.04,3.81c-2.16,5.92-4.47,11.79-6.53,17.76
		c16.41,6.04,32.68,12.46,49.09,18.48c-1.34,4.14-2.94,8.18-4.41,12.27c-16.43-6.17-32.83-12.41-49.24-18.6
		c-2.22,5.88-4.36,11.78-6.56,17.67c-3.31-1.24-6.61-2.53-9.96-3.66C58.5,426.46,64.6,410.63,70.42,394.71z"/>
	<path class="st0" d="M944.35,846.78c3.3-3.65,6.38-7.51,9.65-11.19c4.43,14.03,8.4,28.24,13.16,42.14
		c6.61,5.88,13.5,11.46,20.19,17.27c-2.77,3.24-5.5,6.51-8.26,9.77c-6.92-5.72-13.57-11.78-20.61-17.34
		c-11.65-1.92-23.4-3.4-35.1-5.06c0.77,0.82,1.54,1.65,2.34,2.49c-4.43,4.47-9.16,8.63-13.75,12.92
		c11.99,13.04,24.13,25.96,36.17,38.96c-3.15,2.95-6.28,5.92-9.43,8.86c-12.06-12.98-24.12-25.98-36.19-38.95
		c-4.68,4.3-9.33,8.61-14,12.92c-2.42-2.66-4.9-5.25-7.21-7.99c8.52-7.89,16.98-15.84,25.49-23.74
		c6.12-5.93,12.91-11.26,18.03-18.14c9.76,1.48,19.48,3.27,29.23,4.87C950.86,865.29,947.4,856.1,944.35,846.78z"/>
	<path class="st0" d="M179.59,845.48c2.76-2.29,5.54-4.56,8.3-6.85c10.72,13.14,21.43,26.29,32.11,39.46
		c-2.76,2.29-5.52,4.59-8.29,6.88c-4.04-4.88-8.04-9.78-12.06-14.66c-13.77,11.15-27.49,22.35-41.26,33.5
		c-2.68-3.36-5.4-6.68-7.99-10.1c13.74-11.12,27.41-22.34,41.11-33.51C187.55,855.29,183.56,850.4,179.59,845.48z"/>
	<g>
		<path class="st0" d="M177.61,926.23c14.69-15.45,29.38-30.91,44.08-46.35c7.07,6.72,14.21,13.38,21.24,20.15
			c4.11,4.08,8.54,8.58,9.43,14.57c1.1,8.32-4.85,16.4-12.41,19.37c-5.89,2.21-12.22-0.27-17.1-3.67
			c2.99,10.18-0.8,20.49-2.55,30.52c18.09-11.33,36.23-22.56,54.35-33.84c3.6,2.64,7.08,5.46,10.78,7.98
			c-5.54,22.35-11.78,44.54-17.62,66.82c-3.78-2.81-7.54-5.62-11.3-8.44c1.4-4.99,2.8-9.96,4.19-14.94
			c-6.81-5.14-13.66-10.23-20.49-15.35c-4.28,2.82-8.6,5.59-12.83,8.49c-3.25-2.4-6.5-4.79-9.76-7.18
			c-3.11-3.05-6.21-6.12-9.46-9.02c1.27-9.33,3.56-18.52,4.3-27.9c0.4-5.06-3.73-8.56-7.05-11.69
			c-6.19,6.42-12.24,12.97-18.49,19.34C183.87,932.08,180.71,929.19,177.61,926.23z M212.45,908.45c3.5,3.2,6.92,6.49,10.37,9.76
			c2.24,2.05,4.66,4.26,7.78,4.79c5.94,0.78,11.56-7.06,7.47-12.1c-4.32-5.2-9.63-9.49-14.43-14.24
			C219.91,900.59,216.09,904.44,212.45,908.45z M249.96,956.78c4.57,3.57,9.26,6.97,13.89,10.46c2.37-8.07,4.74-16.14,7.09-24.21
			C263.92,947.58,257,952.27,249.96,956.78z"/>
	</g>
	<path class="st0" d="M277.32,885.44c191.2-0.02,382.41-0.03,573.61,0c-11,9.89-22.54,19.19-34.53,27.85
		c-167.65-0.02-335.3,0.01-502.94-0.02c-1.05,0.06-1.97-0.26-2.75-0.95C299.16,903.89,288.02,894.91,277.32,885.44z"/>
	<path class="st0" d="M868.4,921.34c3.28-2.81,6.71-5.44,10.07-8.16c13.36,16.62,26.93,33.09,40.15,49.82
		c-3.4,2.63-6.69,5.4-10.03,8.1C895.18,954.53,881.83,937.9,868.4,921.34z"/>
	<path class="st0" d="M341.24,932.71c148.61-0.02,297.23-0.01,445.85,0c-14.41,8.75-29.29,16.85-44.77,23.52
		c-117.61,0.24-235.24,0-352.86,0.12c-1.69-0.05-3.48,0.17-5.01-0.67C369.65,948.79,355.18,941.2,341.24,932.71z"/>
	<path class="st0" d="M842.93,938.91c5.66-3.79,12.63-6.58,19.52-5c4.41,0.95,7.94,4,10.73,7.4c-3.38,2.64-6.81,5.21-10.16,7.89
		c-2.67-2.41-6.24-4.58-9.96-3.37c-4.63,1.73-9.37,4.86-11.05,9.74c-1.24,3.29,1.98,6.91,5.41,6.27c9.36-1.29,17.65-6.84,27.12-7.66
		c11.83-0.66,21.46,12.18,18.56,23.41c-1.61,6.87-7.09,11.87-12.6,15.82c-5.79,4.07-12.93,7.19-20.14,5.91
		c-5.67-0.94-10.41-4.59-14.18-8.73c3.23-2.71,6.36-5.56,9.71-8.12c3.23,3.23,7.83,5.67,12.52,4.58c5.05-1.27,9.62-4.87,11.86-9.6
		c2.36-4.48-1.51-10.91-6.75-10.03c-7.23,1.25-13.65,5.28-20.85,6.74c-5.18,1.33-11.04,0.86-15.46-2.34
		c-5.49-3.74-8.41-10.9-6.79-17.39C831.98,947.67,837.35,942.62,842.93,938.91z"/>
	<path class="st0" d="M319.66,958.65c4.14,2.13,8.28,4.25,12.4,6.41c-2.37,16.5-4.74,33.01-7.09,49.52
		c11.86-11.67,23.66-23.39,35.51-35.07c4.05,2.08,8.09,4.18,12.14,6.29c-16.44,15.53-33.04,30.88-49.38,46.51
		c-4.22-1.98-8.36-4.13-12.43-6.39C313.89,1003.51,316.69,981.07,319.66,958.65z"/>
	<g>
		<path class="st0" d="M800.25,967.25c5.42-2.79,12.01-5.12,17.95-2.46c7.51,3.46,12.59,12.42,10.8,20.64
			c-1.16,4.7-4.67,8.32-8.35,11.25c7.24-0.01,13.74,3.37,19.86,6.87c4.37,2.42,8.72,4.88,13.09,7.32c-4.59,2.5-9.13,5.07-13.77,7.47
			c-6.58-3.58-13.26-6.95-19.87-10.46c-2.89-1.5-6.04-2.9-9.35-2.8c-3.3,0.39-6.16,2.23-9.02,3.76c4.21,7.84,8.57,15.6,12.7,23.48
			c-3.79,1.99-7.48,4.16-11.25,6.18c-10.22-18.71-20.5-37.39-30.72-56.09C781.63,977.37,790.86,972.15,800.25,967.25z
			 M788.95,985.52c2.42,4.86,5.16,9.55,7.74,14.34c6.05-3.63,13.01-6.08,18.17-11c5.2-5.15-1.42-15.54-8.32-12.53
			C800.46,978.96,794.86,982.55,788.95,985.52z"/>
	</g>
	<path class="st0" d="M435.57,975.72c85.75-0.08,171.5-0.09,257.25,0.01C609.73,1001.77,518.65,1001.78,435.57,975.72z"/>
	<path class="st0" d="M374.1,985.5c4,1.56,7.93,3.26,11.9,4.91c-8.15,19.69-16.3,39.39-24.46,59.08c-4-1.64-7.99-3.3-11.97-4.96
		C357.73,1024.84,365.97,1005.19,374.1,985.5z"/>
	<path class="st0" d="M718.15,1004.73c15.62-6.32,31.26-12.61,46.88-18.93c1.39,3.33,2.75,6.68,4.12,10.04
		c-11.68,4.68-23.36,9.34-35.04,14.01c1.77,4.4,3.6,8.79,5.41,13.19c10.75-4.31,21.48-8.65,32.23-12.95
		c1.35,3.29,2.64,6.62,4.05,9.9c-10.72,4.47-21.55,8.67-32.32,12.99c2.08,5.47,4.29,10.89,6.46,16.34c12-4.9,24.07-9.63,36.03-14.61
		c1.5,3.3,2.78,6.68,4.14,10.05c-16.04,6.45-32.08,12.9-48.11,19.37C734.03,1044.34,726.09,1024.53,718.15,1004.73z"/>
	<path class="st0" d="M393.18,993.8c4.01,1.26,8.01,2.53,12.01,3.83c4.03,16.03,7.45,32.24,11.89,48.16
		c4.42-13.33,8.66-26.71,13.03-40.06c3.8,1.23,7.61,2.43,11.42,3.67c-6.53,20.32-13.05,40.64-19.6,60.96
		c-4.09-1.35-8.18-2.69-12.27-4.02c-3.96-15.84-7.89-31.68-11.85-47.52c-4.34,13.19-8.58,26.42-12.9,39.61
		c-3.77-1.23-7.52-2.45-11.28-3.68C380.13,1034.43,386.67,1014.12,393.18,993.8z"/>
	<path class="st0" d="M703.64,1008.84c4.43-1.12,8.83-2.32,13.25-3.45c-1.92,22.58-3.91,45.15-5.85,67.73
		c-4.45,1.18-8.9,2.36-13.34,3.55c-12.79-18.73-25.73-37.34-38.39-56.15c4.51-1.13,9.01-2.27,13.52-3.41
		c9.24,13.8,18.38,27.66,27.62,41.46C701.83,1042.02,702.48,1025.41,703.64,1008.84z"/>
	<path class="st0" d="M436.89,1074.31c3.97-21,8.36-41.92,12.51-62.89c4.3,0.84,8.6,1.69,12.9,2.58c-1.7,8.22-3.39,16.45-5.07,24.68
		c8.15,1.68,16.34,3.22,24.48,4.96c1.86-8.21,3.42-16.49,5.13-24.73c4.25,0.83,8.5,1.68,12.75,2.55
		c-4.2,20.93-8.43,41.86-12.63,62.79c-4.24-0.83-8.47-1.69-12.7-2.56c1.84-9.15,3.71-18.3,5.54-27.46
		c-8.25-1.67-16.52-3.19-24.74-4.96c-2.07,9.13-3.7,18.36-5.61,27.53C445.26,1075.97,441.1,1075.02,436.89,1074.31z"/>
	<path class="st0" d="M646.11,1022.01c4.25-0.78,8.51-1.52,12.78-2.25c3.68,21,7.43,41.99,11.13,62.99
		c-4.27,0.77-8.53,1.56-12.79,2.32C653.53,1064.05,649.82,1043.03,646.11,1022.01z"/>
	<path class="st0" d="M625.61,1024.85c3.99-0.31,7.97-0.63,11.97-0.94c1.72,21.28,3.47,42.56,5.16,63.85
		c-4.3,0.34-8.6,0.66-12.89,0.98c-9.71-13.08-19.28-26.27-29.09-39.27c1.11,13.79,2.29,27.57,3.4,41.36
		c-4.01,0.33-8.02,0.66-12.02,0.99c-1.75-21.26-3.49-42.51-5.21-63.77c4.2-0.36,8.4-0.71,12.61-1.05
		c9.85,13.49,19.66,27.01,29.52,40.5C627.91,1053.28,626.75,1039.07,625.61,1024.85z"/>
	<path class="st0" d="M528.51,1025.44c4.3,0.19,8.61,0.42,12.92,0.58c-0.57,14.16-1.58,28.31-2.09,42.47
		c-0.36,4.74,2.19,9.86,6.94,11.32c4.61,1.36,10.24,1.75,14.31-1.24c3.3-2.61,3.27-7.2,3.72-11c0.83-13.39,1.48-26.78,2.25-40.16
		c4.29,0.22,8.58,0.47,12.87,0.68c-0.66,13.5-1.33,27-2.17,40.5c-0.55,6.78-1.89,14.51-7.73,18.84c-7.73,5.63-18.15,5.02-27.04,3.09
		c-7.46-1.55-14.19-7.37-15.39-15.1c-1.41-9.6-0.03-19.31,0.28-28.94C527.75,1039.46,528.12,1032.45,528.51,1025.44z"/>
</g>
<g>
	<g>
		<path class="st1" d="M536.15,12.38c81.19-4.15,163.3,9.76,238.42,40.9c66.25,27.36,127.01,67.82,177.93,118.24
			c68.92,68.04,119.63,154.41,144.9,247.93c24,88.28,25.52,182.55,4.52,271.58c-17.05,72.55-49.18,141.48-93.57,201.33
			c-42.09,56.87-95.14,105.59-155.39,142.65c-64.83,39.96-138.03,66.26-213.5,76.5c-85.34,11.69-173.43,3.29-254.87-24.86
			c-100.3-34.39-189.99-98.63-255.29-182.12c-45.33-57.72-79.03-124.56-98.26-195.4c-25.4-93.21-25.72-193.12-0.92-286.5
			c18.73-70.83,51.92-137.77,96.74-195.71c40.89-52.94,91.41-98.43,148.38-133.5C353.55,45.02,444.2,16.87,536.15,12.38z
			 M542.16,106.09c4.29,0.17,8.58,0.05,12.87,0.06c0-9.26-0.01-18.51,0.01-27.77c8.25-0.08,16.51-0.15,24.77-0.22
			c0.06,9.31,0.08,18.62,0.15,27.93c4.28-0.02,8.57-0.02,12.86-0.06c-0.11-21.33-0.21-42.65-0.32-63.98
			c-4.28,0.02-8.57,0.04-12.85,0.08c0.06,8.39,0.12,16.78,0.16,25.17c-8.34,0.03-16.67,0.06-25,0.09
			c-0.03-8.39-0.04-16.78-0.07-25.17c-4.23,0.03-8.47,0.12-12.7,0.08C541.89,63.56,542.27,84.83,542.16,106.09z M624.97,46.17
			c-9.04,2.59-15.92,10.35-18.72,19.16c-2.51,8.07-3.37,16.89-1.19,25.14c2.19,8.16,8.31,15.19,16.28,18.15
			c8.43,3.1,18.2,3.98,26.58,0.25c7.63-3.35,13.04-10.53,15.39-18.4c2.03-6.91,2.73-14.3,1.59-21.43
			c-1.5-9.18-7.75-17.58-16.46-21.08C641.06,45.07,632.69,44.11,624.97,46.17z M480.93,48.93c2.95,21.1,5.98,42.18,8.88,63.28
			c4.27-0.53,8.53-1.17,12.79-1.8c-2.96-21.12-5.94-42.25-8.92-63.37C489.43,47.66,485.18,48.29,480.93,48.93z M428.43,59.86
			c-3.1,22.67-5.98,45.38-8.97,68.07c4.38-1.05,8.75-2.16,13.12-3.24c0.63-5.13,1.19-10.26,1.82-15.38
			c8.11-2.02,16.22-4.04,24.34-6.06c2.97,4.27,5.93,8.56,8.88,12.85c4.49-1.1,8.97-2.24,13.46-3.34
			c-13.17-18.74-26.35-37.47-39.58-56.17C437.14,57.7,432.8,58.82,428.43,59.86z M687.1,68.07c-6.2,6.31-9.38,14.96-10.86,23.53
			c-1.68,10.21,1.53,21.74,9.98,28.17c6.87,5.1,15.95,7.54,24.41,5.87c7.31-1.53,12.94-7.12,16.72-13.3
			c-3.58-2.42-7.16-4.87-10.77-7.25c-1.59,2.5-3.21,5.07-5.58,6.91c-7.05,5.87-19.4,1.5-21.57-7.32
			c-1.55-5.83-0.23-11.94,1.44-17.59c1.64-5.17,3.93-10.58,8.5-13.82c4.94-3.46,11.8-2.43,16.68,0.62c4.02,2.62,5.5,7.55,5.67,12.11
			c4.26,0.06,8.51,0.38,12.77,0.53c-0.07-5.22-0.96-10.67-4.19-14.93C720.75,58.26,698.51,55.7,687.1,68.07z M366.66,80.58
			c-8.4,3.34-16.74,6.8-25.09,10.27c3.53,8.54,7,17.11,10.49,25.67c-2.04,0.87-4.08,1.73-6.12,2.6c1.01,2.49,2.01,4.99,3,7.49
			c2.07-0.78,4.13-1.6,6.2-2.39c3.39,8.62,6.9,17.19,10.34,25.79c8.14-3.37,16.33-6.64,24.43-10.09c7.4-3.1,14.12-9.21,15.76-17.33
			c2.06-8.98-0.97-18.09-4.76-26.17c-3.32-7.21-8.78-13.97-16.4-16.83C378.73,77.35,372.29,78.35,366.66,80.58z M776.18,96.35
			c5.47,2.88,10.87,5.88,16.41,8.64c-7.7,15.9-16.26,31.4-24.25,47.16c3.78,2,7.55,4.02,11.34,6.04c8.24-15.64,16.16-31.46,24.58-47
			c5.43,3.03,10.97,5.85,16.45,8.79c1.62-3.18,3.24-6.36,4.85-9.55c-14.77-7.93-29.54-15.83-44.31-23.74
			C779.55,89.91,777.86,93.13,776.18,96.35z M624.8,114.94c-0.74,4.23-1.7,8.41-2.54,12.62c4.2,0.89,8.4,1.76,12.61,2.63
			c0.86-4.21,1.73-8.42,2.6-12.63C633.25,116.66,629.05,115.66,624.8,114.94z M803.81,171.91c3.44,2.54,6.92,5.04,10.36,7.58
			c5.21-7.18,10.34-14.43,15.52-21.64c2.54,1.87,5.29,3.65,7.1,6.3c1.65,2.81,1.63,6.21,1.62,9.37c-0.24,7.68-0.57,15.35-0.91,23.02
			c6.31,4.49,12.35,9.34,17.8,14.86c4.56-2.26,9.05-4.7,13.69-6.82c5.98,5.94,12.18,11.65,18.23,17.52
			c-1.98,4.81-3.93,9.62-5.89,14.44c3.36,3.23,6.73,6.45,10.11,9.66c8.37-21.43,16.99-42.77,25.16-64.27
			c-3.32-3.01-6.49-6.19-9.76-9.26c-18.85,9.02-37.74,17.95-56.58,26.99c0.4-9.88,2.57-20.31-1.59-29.71
			c4.94,2.58,11,4.31,16.35,1.86c7.04-3.4,11.8-11.4,10.97-19.24c-0.79-5.9-5.3-10.33-9.8-13.78c-8.36-6.29-16.8-12.47-25.15-18.77
			C828.58,137.28,816.24,154.62,803.81,171.91z M276.76,127.73c-6.14,3.61-12,8.39-14.93,15.06c-4.04,8.34-3.45,18.39,0.65,26.59
			c4.69,9.72,13.16,18.37,23.98,20.73c8.87,1.92,18.04-1.28,25.14-6.57c7.53-5.76,13.76-13.74,16.02-23.07
			c-4.81-7.03-9.6-14.07-14.4-21.1c-7.54,5.26-15.04,10.58-22.56,15.87c2.01,2.93,4.02,5.86,6.04,8.78c4.04-2.77,8-5.66,12.08-8.37
			c1.48,2.25,2.96,4.49,4.48,6.71c-2.44,8.07-9.16,15.4-17.79,16.51c-7.99,0.66-14.72-5.13-18.86-11.41
			c-3.81-5.41-6.63-12.33-4.59-18.97c1.82-5.76,6.99-9.97,12.51-12.01c4.28-1.58,8.89,0.03,12.34,2.7c3.03-3.08,6.14-6.11,9.12-9.24
			c-3.3-2.81-7.03-5.36-11.37-6.15C288.42,122.54,282.07,124.58,276.76,127.73z M446.55,127.23c0.73,4.23,1.43,8.47,2.13,12.71
			c4.17-0.7,8.34-1.42,12.51-2.14c-0.65-4.23-1.34-8.46-2-12.68C454.97,125.81,450.75,126.49,446.55,127.23z M510.41,136.43
			c-64.99,8.03-128.03,31.26-182.68,67.32c-63.53,41.7-115.71,100.5-149.46,168.59c-25.13,50.4-40.1,105.82-43.91,162
			c21.64,0,43.28,0,64.92,0c4.25-47.55,17.64-94.28,39.41-136.77c25.37-49.74,62.09-93.66,106.62-127.35
			c40.59-30.79,87.67-53.02,137.31-64.54c78.37-18.34,162.8-9.93,235.74,24.23c60.27,27.95,112.48,72.7,149.86,127.58
			c21.41-6.36,43.14-11.6,65.03-16.04c-42.08-69.79-104.34-127.23-177.35-163.46C680.54,140.3,593.96,125.9,510.41,136.43z
			 M916.12,157.13l0.96,0.88c-0.4,5.49-0.92,10.97-1.35,16.46c1.72,1.88,3.44,3.76,5.17,5.64c1.87-4.42,3.71-8.86,5.55-13.29
			c-3.11-3.24-5.95-6.75-9.21-9.83C916.96,157.02,916.4,157.09,916.12,157.13z M223.56,170.58c9.56,10.35,19.18,20.66,28.72,31.04
			c-15.87-4.33-31.7-8.79-47.56-13.16c-3.05,2.88-6.14,5.73-9.15,8.67c14.45,15.47,28.86,30.98,43.21,46.54
			c3.01-2.57,5.78-5.41,8.68-8.11c-9.35-10.17-18.75-20.28-28.07-30.48c15.54,4.28,31.12,8.41,46.62,12.81
			c3.25-2.84,6.27-5.91,9.44-8.83c-14.37-15.61-28.83-31.15-43.23-46.74C229.32,165.06,226.44,167.82,223.56,170.58z M164.93,215
			c2.2,1.74,4.38,3.5,6.57,5.27c0.87-1.11,1.75-2.22,2.64-3.32c1.78,1.81,2.72,4.18,2.5,6.74c-10.2,3.98-18.06,13.24-20.98,23.72
			c-2.77,10.14,1.71,20.87,8.87,28.09c7.03,7.22,16.56,13.22,27.01,12.62c7.63-0.17,14.63-4.27,19.66-9.81
			c6.42-6.81,10.95-16.21,9.41-25.74c-1.46-10.72-9.28-19.36-18.11-24.98c-6.36-4.15-14.12-6.2-21.69-5.07
			c0.17-6.7-5.97-10.58-10.54-14.31C168.46,210.45,166.67,212.71,164.93,215z M519.34,222.84c-47.22,6.33-93.03,22.79-133.51,47.91
			c-48.89,30.21-89.96,72.84-118.5,122.71c-24.77,43.05-40.07,91.45-44.78,140.89c7.44-0.03,14.89,0.04,22.33-0.05
			c6.24-55.09,26.66-108.5,58.81-153.68c32.9-46.46,78.06-84.22,129.85-107.94c73.1-33.86,159.09-38.44,235.43-12.78
			c61.68,20.47,116.64,60.25,155.79,112.07c6.74-2.42,13.46-4.88,20.25-7.16C799.55,300.77,731.86,252.64,656,231.93
			C611.68,219.69,564.89,216.69,519.34,222.84z M142.29,231.66c5.79,0.06,11.59,0.01,17.38,0.03c1.75-1.89,3.5-3.78,5.22-5.7
			c-4.48-1.45-8.96-2.93-13.44-4.38C148.4,224.96,145.27,228.24,142.29,231.66z M923.23,287.08c2.66,3.72,5.26,7.5,7.95,11.21
			c21.5-6.24,43.02-12.39,64.52-18.6c-2.41-3.8-5.18-7.35-7.71-11.06c-15.76,4.81-31.47,9.81-47.22,14.65
			c9.63-13.55,19.28-27.09,28.89-40.65c-2.82-3.57-5.05-7.83-8.18-11C948.53,249.96,935.97,268.6,923.23,287.08z M124.66,268.15
			c2.3,1.4,4.5,3,6.88,4.27c1.32-0.42,1.6-2.2,2.49-3.13c2.08,0.97,2.82,3.19,3.38,5.25c-0.67-0.35-2-1.05-2.67-1.4
			c-2.2,3.69-4.55,7.29-6.67,11.04c11.38,7.1,22.72,14.28,34.01,21.53c3.47,2.26,7.71,5.1,7.51,9.8c-0.35,4.77-3.15,9.17-6.67,12.29
			c-3.58,3.12-8.88,2.38-12.59-0.11c-11.91-7.21-23.62-14.77-35.44-22.14c-2.27,3.61-4.5,7.24-6.75,10.87
			c11.35,7.1,22.49,14.55,34.02,21.37c4.72,2.56,9.69,5.57,15.28,5.06c7.06-0.22,12.72-5.33,16.62-10.78
			c4.43-6.3,8.4-13.78,7.3-21.73c-0.81-6.15-5.59-10.78-10.41-14.19c-9.81-6.71-20.13-12.64-30.04-19.18
			c0.28-2.57,0.44-5.35-1.02-7.62c-2.46-3.98-6.91-5.95-10.68-8.44C127.67,263.31,126.15,265.72,124.66,268.15z M442.6,293.58
			c-31.38,14.4-60.2,34.3-84.88,58.43c-49.62,48.2-81.94,113.66-90.2,182.33c8.3,0.01,16.59,0,24.89,0.01
			c4.04-37.08,15.75-73.29,34.25-105.68c30.1-53.02,78.39-95.45,134.95-118.27c44.32-18.03,93.43-23.93,140.8-17.26
			c36.51,5.09,71.93,17.79,103.4,37c27.05,16.46,51.18,37.69,71.06,62.34c8.53-4.11,17.16-8.01,25.88-11.72
			c-31.82-40.08-73.79-72.13-121.1-91.71c-36.96-15.36-77.05-23.14-117.07-22.68C522.61,266.7,480.72,276.01,442.6,293.58z
			 M947.24,323.35c2.2,3.67,4.26,7.41,6.51,11.05c18.1-10.92,36.29-21.69,54.4-32.59c-2.17-3.7-4.32-7.41-6.49-11.1
			C983.53,301.61,965.31,312.35,947.24,323.35z M524.47,314.61c-35.55,5.61-69.83,19.03-99.74,39.04
			c-29.67,19.78-55.07,45.93-73.99,76.15c-19.82,31.55-32.49,67.55-36.83,104.55c7.71-0.17,15.48,0.29,23.16-0.22
			c10.52-8.49,24.14-12.26,37.48-12.85c18.11-0.76,36.01,4.23,52.35,11.77c17.99,8.35,34.39,19.78,49.56,32.49
			c25.98,21.9,48.44,47.61,69.15,74.45c14.59-33.48,31.56-66.03,52.43-96.05c21.9-31.73,47.87-60.67,77.24-85.66
			c25.31-21.59,53.1-40.23,82.39-55.98c-28.36-33.97-65.71-60.42-107.31-75.6C610.34,312.01,566.56,307.95,524.47,314.61z
			 M960.41,345.06c1.41,3.81,3.38,7.37,5.06,11.06c12.4-5.91,24.77-11.89,37.18-17.78c-8.79,13.68-17.66,27.32-26.46,40.99
			c1.8,3.92,3.62,7.83,5.44,11.74c19.08-9.09,38.17-18.18,57.25-27.3c-1.68-3.59-3.33-7.18-5.02-10.75
			c-12.74,6.07-25.48,12.12-38.22,18.18c9.07-13.95,18.18-27.87,27.23-41.82c-1.75-3.81-3.49-7.63-5.23-11.43
			C998.55,326.95,979.53,336.13,960.41,345.06z M91.13,350.09c-5.31,10.07-9.9,20.51-14.95,30.71
			c18.99,9.34,38.02,18.57,57.05,27.83c1.83-3.93,3.76-7.81,5.52-11.78c-7.95-3.79-15.84-7.69-23.76-11.53
			c1.38-2.68,2.47-5.58,4.49-7.86c2.43-2.33,5.94-2.89,9.12-3.47c6.69-1,13.39-1.98,20.09-2.86c1.06-0.31,2.75,0.02,3.09-1.42
			c2.1-4.27,4.04-8.62,6.1-12.91c-7.46,0.84-14.94,1.56-22.36,2.69c-4.41,0.64-8.55,2.47-12.23,4.94c1.37-4.75,2.14-10.07,0-14.72
			c-3.01-6.21-10.01-9.99-16.76-10.25C99.68,339.24,94.11,344.34,91.13,350.09z M820.45,400.32
			c-62.64,26.87-118.75,68.2-164.37,118.72c-23.92,26.67-44.87,56.19-60.67,88.41c-16.53,33.64-27.17,70.6-27.66,108.25
			c-11.31-16.09-22.62-32.22-34.9-47.6c-22.71-28.62-47.21-56.08-75.41-79.44c-14.83-12.09-30.78-23.19-48.62-30.36
			c-13.35-5.33-28.31-8.18-42.48-4.56c-7.46,1.78-14.24,5.61-20.32,10.2c-8.21,2.44-17.04,1.53-25.4,0.26
			c-0.04,50.64,0.1,101.28-0.07,151.92c-12.89-0.06-25.79-0.01-38.68-0.03c-0.01-50.64,0.01-101.29-0.01-151.93
			c-49.55-0.01-99.1-0.01-148.65,0c-0.02,38.58,5.1,77.16,15.33,114.36c19.28,70.4,56.99,135.64,108.29,187.55
			c204.97-0.14,409.93,0,614.9-0.07c27.82-28.42,51.83-60.59,70.88-95.51c39.11-70.98,57.04-153.26,51.7-234.08
			c-3.71-58.94-19.84-117.04-46.93-169.5C903.58,370.83,860.78,383.03,820.45,400.32z M986.95,404.07
			c1.12,4.11,2.25,8.22,3.36,12.34c8.89-2.42,17.76-4.95,26.65-7.43c2.22,8.08,4.43,16.17,6.63,24.26
			c-8.86,2.49-17.69,5.05-26.55,7.5c1.06,4.16,2.28,8.29,3.29,12.47c20.4-5.53,40.67-11.54,61.01-17.28
			c-1.17-4.13-2.33-8.25-3.48-12.37c-7.98,2.23-15.95,4.48-23.92,6.74c-2.15-8.14-4.62-16.21-6.54-24.41
			c7.93-2.11,15.78-4.54,23.74-6.55c-0.95-4.21-2.25-8.33-3.38-12.49C1027.48,392.58,1007.21,398.32,986.95,404.07z M70.42,394.71
			c-5.82,15.92-11.92,31.75-17.57,47.73c3.35,1.13,6.65,2.42,9.96,3.66c2.2-5.89,4.34-11.79,6.56-17.67
			c16.41,6.19,32.81,12.43,49.24,18.6c1.47-4.09,3.07-8.13,4.41-12.27c-16.41-6.02-32.68-12.44-49.09-18.48
			c2.06-5.97,4.37-11.84,6.53-17.76C77.12,397.24,73.77,395.97,70.42,394.71z M944.35,846.78c3.05,9.32,6.51,18.51,9.71,27.79
			c-9.75-1.6-19.47-3.39-29.23-4.87c-5.12,6.88-11.91,12.21-18.03,18.14c-8.51,7.9-16.97,15.85-25.49,23.74
			c2.31,2.74,4.79,5.33,7.21,7.99c4.67-4.31,9.32-8.62,14-12.92c12.07,12.97,24.13,25.97,36.19,38.95c3.15-2.94,6.28-5.91,9.43-8.86
			c-12.04-13-24.18-25.92-36.17-38.96c4.59-4.29,9.32-8.45,13.75-12.92c-0.8-0.84-1.57-1.67-2.34-2.49
			c11.7,1.66,23.45,3.14,35.1,5.06c7.04,5.56,13.69,11.62,20.61,17.34c2.76-3.26,5.49-6.53,8.26-9.77
			c-6.69-5.81-13.58-11.39-20.19-17.27c-4.76-13.9-8.73-28.11-13.16-42.14C950.73,839.27,947.65,843.13,944.35,846.78z
			 M179.59,845.48c3.97,4.92,7.96,9.81,11.92,14.72c-13.7,11.17-27.37,22.39-41.11,33.51c2.59,3.42,5.31,6.74,7.99,10.1
			c13.77-11.15,27.49-22.35,41.26-33.5c4.02,4.88,8.02,9.78,12.06,14.66c2.77-2.29,5.53-4.59,8.29-6.88
			c-10.68-13.17-21.39-26.32-32.11-39.46C185.13,840.92,182.35,843.19,179.59,845.48z M177.61,926.23c3.1,2.96,6.26,5.85,9.31,8.86
			c6.25-6.37,12.3-12.92,18.49-19.34c3.32,3.13,7.45,6.63,7.05,11.69c-0.74,9.38-3.03,18.57-4.3,27.9c3.25,2.9,6.35,5.97,9.46,9.02
			c3.26,2.39,6.51,4.78,9.76,7.18c4.23-2.9,8.55-5.67,12.83-8.49c6.83,5.12,13.68,10.21,20.49,15.35
			c-1.39,4.98-2.79,9.95-4.19,14.94c3.76,2.82,7.52,5.63,11.3,8.44c5.84-22.28,12.08-44.47,17.62-66.82
			c-3.7-2.52-7.18-5.34-10.78-7.98c-18.12,11.28-36.26,22.51-54.35,33.84c1.75-10.03,5.54-20.34,2.55-30.52
			c4.88,3.4,11.21,5.88,17.1,3.67c7.56-2.97,13.51-11.05,12.41-19.37c-0.89-5.99-5.32-10.49-9.43-14.57
			c-7.03-6.77-14.17-13.43-21.24-20.15C206.99,895.32,192.3,910.78,177.61,926.23z M277.32,885.44
			c10.7,9.47,21.84,18.45,33.39,26.88c0.78,0.69,1.7,1.01,2.75,0.95c167.64,0.03,335.29,0,502.94,0.02
			c11.99-8.66,23.53-17.96,34.53-27.85C659.73,885.41,468.52,885.42,277.32,885.44z M868.4,921.34
			c13.43,16.56,26.78,33.19,40.19,49.76c3.34-2.7,6.63-5.47,10.03-8.1c-13.22-16.73-26.79-33.2-40.15-49.82
			C875.11,915.9,871.68,918.53,868.4,921.34z M341.24,932.71c13.94,8.49,28.41,16.08,43.21,22.97c1.53,0.84,3.32,0.62,5.01,0.67
			c117.62-0.12,235.25,0.12,352.86-0.12c15.48-6.67,30.36-14.77,44.77-23.52C638.47,932.7,489.85,932.69,341.24,932.71z
			 M842.93,938.91c-5.58,3.71-10.95,8.76-12.51,15.52c-1.62,6.49,1.3,13.65,6.79,17.39c4.42,3.2,10.28,3.67,15.46,2.34
			c7.2-1.46,13.62-5.49,20.85-6.74c5.24-0.88,9.11,5.55,6.75,10.03c-2.24,4.73-6.81,8.33-11.86,9.6c-4.69,1.09-9.29-1.35-12.52-4.58
			c-3.35,2.56-6.48,5.41-9.71,8.12c3.77,4.14,8.51,7.79,14.18,8.73c7.21,1.28,14.35-1.84,20.14-5.91
			c5.51-3.95,10.99-8.95,12.6-15.82c2.9-11.23-6.73-24.07-18.56-23.41c-9.47,0.82-17.76,6.37-27.12,7.66
			c-3.43,0.64-6.65-2.98-5.41-6.27c1.68-4.88,6.42-8.01,11.05-9.74c3.72-1.21,7.29,0.96,9.96,3.37c3.35-2.68,6.78-5.25,10.16-7.89
			c-2.79-3.4-6.32-6.45-10.73-7.4C855.56,932.33,848.59,935.12,842.93,938.91z M319.66,958.65c-2.97,22.42-5.77,44.86-8.85,67.27
			c4.07,2.26,8.21,4.41,12.43,6.39c16.34-15.63,32.94-30.98,49.38-46.51c-4.05-2.11-8.09-4.21-12.14-6.29
			c-11.85,11.68-23.65,23.4-35.51,35.07c2.35-16.51,4.72-33.02,7.09-49.52C327.94,962.9,323.8,960.78,319.66,958.65z M800.25,967.25
			c-9.39,4.9-18.62,10.12-27.93,15.16c10.22,18.7,20.5,37.38,30.72,56.09c3.77-2.02,7.46-4.19,11.25-6.18
			c-4.13-7.88-8.49-15.64-12.7-23.48c2.86-1.53,5.72-3.37,9.02-3.76c3.31-0.1,6.46,1.3,9.35,2.8c6.61,3.51,13.29,6.88,19.87,10.46
			c4.64-2.4,9.18-4.97,13.77-7.47c-4.37-2.44-8.72-4.9-13.09-7.32c-6.12-3.5-12.62-6.88-19.86-6.87c3.68-2.93,7.19-6.55,8.35-11.25
			c1.79-8.22-3.29-17.18-10.8-20.64C812.26,962.13,805.67,964.46,800.25,967.25z M435.57,975.72
			c83.08,26.06,174.16,26.05,257.25,0.01C607.07,975.63,521.32,975.64,435.57,975.72z M374.1,985.5
			c-8.13,19.69-16.37,39.34-24.53,59.03c3.98,1.66,7.97,3.32,11.97,4.96c8.16-19.69,16.31-39.39,24.46-59.08
			C382.03,988.76,378.1,987.06,374.1,985.5z M718.15,1004.73c7.94,19.8,15.88,39.61,23.85,59.4c16.03-6.47,32.07-12.92,48.11-19.37
			c-1.36-3.37-2.64-6.75-4.14-10.05c-11.96,4.98-24.03,9.71-36.03,14.61c-2.17-5.45-4.38-10.87-6.46-16.34
			c10.77-4.32,21.6-8.52,32.32-12.99c-1.41-3.28-2.7-6.61-4.05-9.9c-10.75,4.3-21.48,8.64-32.23,12.95
			c-1.81-4.4-3.64-8.79-5.41-13.19c11.68-4.67,23.36-9.33,35.04-14.01c-1.37-3.36-2.73-6.71-4.12-10.04
			C749.41,992.12,733.77,998.41,718.15,1004.73z M393.18,993.8c-6.51,20.32-13.05,40.63-19.55,60.95c3.76,1.23,7.51,2.45,11.28,3.68
			c4.32-13.19,8.56-26.42,12.9-39.61c3.96,15.84,7.89,31.68,11.85,47.52c4.09,1.33,8.18,2.67,12.27,4.02
			c6.55-20.32,13.07-40.64,19.6-60.96c-3.81-1.24-7.62-2.44-11.42-3.67c-4.37,13.35-8.61,26.73-13.03,40.06
			c-4.44-15.92-7.86-32.13-11.89-48.16C401.19,996.33,397.19,995.06,393.18,993.8z M703.64,1008.84
			c-1.16,16.57-1.81,33.18-3.19,49.73c-9.24-13.8-18.38-27.66-27.62-41.46c-4.51,1.14-9.01,2.28-13.52,3.41
			c12.66,18.81,25.6,37.42,38.39,56.15c4.44-1.19,8.89-2.37,13.34-3.55c1.94-22.58,3.93-45.15,5.85-67.73
			C712.47,1006.52,708.07,1007.72,703.64,1008.84z M436.89,1074.31c4.21,0.71,8.37,1.66,12.56,2.49c1.91-9.17,3.54-18.4,5.61-27.53
			c8.22,1.77,16.49,3.29,24.74,4.96c-1.83,9.16-3.7,18.31-5.54,27.46c4.23,0.87,8.46,1.73,12.7,2.56
			c4.2-20.93,8.43-41.86,12.63-62.79c-4.25-0.87-8.5-1.72-12.75-2.55c-1.71,8.24-3.27,16.52-5.13,24.73
			c-8.14-1.74-16.33-3.28-24.48-4.96c1.68-8.23,3.37-16.46,5.07-24.68c-4.3-0.89-8.6-1.74-12.9-2.58
			C445.25,1032.39,440.86,1053.31,436.89,1074.31z M646.11,1022.01c3.71,21.02,7.42,42.04,11.12,63.06
			c4.26-0.76,8.52-1.55,12.79-2.32c-3.7-21-7.45-41.99-11.13-62.99C654.62,1020.49,650.36,1021.23,646.11,1022.01z M625.61,1024.85
			c1.14,14.22,2.3,28.43,3.45,42.65c-9.86-13.49-19.67-27.01-29.52-40.5c-4.21,0.34-8.41,0.69-12.61,1.05
			c1.72,21.26,3.46,42.51,5.21,63.77c4-0.33,8.01-0.66,12.02-0.99c-1.11-13.79-2.29-27.57-3.4-41.36
			c9.81,13,19.38,26.19,29.09,39.27c4.29-0.32,8.59-0.64,12.89-0.98c-1.69-21.29-3.44-42.57-5.16-63.85
			C633.58,1024.22,629.6,1024.54,625.61,1024.85z M528.51,1025.44c-0.39,7.01-0.76,14.02-1.13,21.04
			c-0.31,9.63-1.69,19.34-0.28,28.94c1.2,7.73,7.93,13.55,15.39,15.1c8.89,1.93,19.31,2.54,27.04-3.09
			c5.84-4.33,7.18-12.06,7.73-18.84c0.84-13.5,1.51-27,2.17-40.5c-4.29-0.21-8.58-0.46-12.87-0.68
			c-0.77,13.38-1.42,26.77-2.25,40.16c-0.45,3.8-0.42,8.39-3.72,11c-4.07,2.99-9.7,2.6-14.31,1.24c-4.75-1.46-7.3-6.58-6.94-11.32
			c0.51-14.16,1.52-28.31,2.09-42.47C537.12,1025.86,532.81,1025.63,528.51,1025.44z"/>
	</g>
	<path class="st1" d="M628.97,57.13c5.46-1.88,11.86-1.04,16.62,2.24c5.33,3.87,7.07,10.91,6.77,17.19
		c-0.36,6.77-1.91,13.99-6.7,19.06c-6.83,7.28-20.39,5.76-25.51-2.77c-3.77-6.07-3.58-13.69-2.28-20.47
		C619.12,66.08,622.66,59.52,628.97,57.13z"/>
	<path class="st1" d="M438.22,73.38c0.85,0.61,1.55,1.38,2.09,2.28c3.96,6.08,8.03,12.09,12.02,18.15
		c-5.55,1.38-11.09,2.74-16.64,4.11C436.5,89.73,437.47,81.57,438.22,73.38z"/>
	<path class="st1" d="M357.45,95.88c6.76-2.34,13.57-6.98,21-5.33c6.97,2.56,10.15,10.08,12.69,16.49c1.94,5.79,4.5,12.99,0.5,18.47
		c-4.85,5.22-12.12,6.89-18.42,9.72c-2.15-5.32-4.28-10.64-6.41-15.97c4.18-1.72,8.36-3.45,12.54-5.16c-0.98-2.5-1.98-5-3-7.49
		c-4.18,1.74-8.35,3.5-12.55,5.21C361.7,106.5,359.53,101.21,357.45,95.88z"/>
	<path class="st1" d="M844.97,136.46c4.79,3.31,9.48,6.76,14.06,10.36c2.31,1.78,4.54,4.47,3.98,7.6c-0.67,2.71-2.39,5.27-4.83,6.67
		c-3.15,1.58-6.72-0.04-9.38-1.83c-4.41-3.2-8.76-6.48-13.18-9.65C838.72,145.22,841.92,140.89,844.97,136.46z"/>
	<path class="st1" d="M879.14,199.44c7.39-3.75,14.78-7.5,22.19-11.21c-3.23,7.73-6.49,15.45-9.74,23.17
		C887.43,207.42,883.28,203.44,879.14,199.44z"/>
	<path class="st1" d="M179.93,235.07c6.09-1.42,12.25,1.3,17.07,4.89c4.94,3.76,9.65,8.52,11.28,14.7
		c2.18,8.07-3.16,16.87-10.73,19.83c-5.74,2.1-12.09,0.25-17.04-2.97c-5.27-3.47-10.21-8.04-12.58-14.02
		C164.17,248.41,170.98,237.71,179.93,235.07z"/>
	<path class="st1" d="M98.69,358.72c1.39-2.72,3.49-5.76,6.86-5.9c3.36,0.09,7.02,1.93,8.32,5.18c0.93,2.87,0.03,5.96-1.18,8.6
		c-2.2,4.8-4.59,9.51-6.93,14.23c-4.74-2.27-9.45-4.63-14.21-6.87C93.83,368.84,96.19,363.74,98.69,358.72z"/>
	<path class="st1" d="M691.11,539.14c11.84-0.01,23.68-0.01,35.52,0c0.01,40.14,0.01,80.28,0.01,120.42
		c0.04,8.24,3.23,16.85,9.81,22.09c7.28,5.69,17.26,6.55,26.1,4.92c7.32-1.3,13.97-6.15,17-13.01c2.7-5.6,3.06-11.94,2.87-18.05
		c-0.01-38.79-0.01-77.58,0-116.37c11.83-0.01,23.66,0,35.5,0c-0.01,40.45,0.04,80.89-0.03,121.34
		c-0.12,17.99-8.52,35.49-21.88,47.41c-11.61,10.05-27.66,12.4-42.5,12.52c-14.99,0.13-31.24-1.99-43.05-12.06
		c-13.53-11.38-19.09-29.6-19.31-46.79C691.05,620.76,691.13,579.95,691.11,539.14z"/>
	<path class="st1" d="M212.45,908.45c3.64-4.01,7.46-7.86,11.19-11.79c4.8,4.75,10.11,9.04,14.43,14.24
		c4.09,5.04-1.53,12.88-7.47,12.1c-3.12-0.53-5.54-2.74-7.78-4.79C219.37,914.94,215.95,911.65,212.45,908.45z"/>
	<path class="st1" d="M249.96,956.78c7.04-4.51,13.96-9.2,20.98-13.75c-2.35,8.07-4.72,16.14-7.09,24.21
		C259.22,963.75,254.53,960.35,249.96,956.78z"/>
	<path class="st1" d="M788.95,985.52c5.91-2.97,11.51-6.56,17.59-9.19c6.9-3.01,13.52,7.38,8.32,12.53
		c-5.16,4.92-12.12,7.37-18.17,11C794.11,995.07,791.37,990.38,788.95,985.52z"/>
</g>
</svg>
